<svg xmlns="http://www.w3.org/2000/svg" width="220" height="220" viewBox="0 0 220 220">
  <g id="Group_77" data-name="Group 77" transform="translate(851.913 -964.534)">
    <circle id="Ellipse_46" data-name="Ellipse 46" cx="110" cy="110" r="110" transform="translate(-851.913 964.534)" fill="#25b39e"/>
    <path id="Path_351" data-name="Path 351" d="M-807.393,1051.232a15.688,15.688,0,0,1-12.073-5.646l-25.787-30.895a15.715,15.715,0,0,1,1.994-22.133,15.717,15.717,0,0,1,22.134,1.994l16.25,19.468,56.242-41.98a15.715,15.715,0,0,1,21.993,3.194,15.713,15.713,0,0,1-3.194,21.992L-798,1048.11A15.654,15.654,0,0,1-807.393,1051.232Z" transform="translate(44.29 64.521)" fill="#f7f9fc"/>
  </g>
</svg>
