<svg xmlns="http://www.w3.org/2000/svg" width="220" height="220" viewBox="0 0 220 220">
  <g id="Group_78" data-name="Group 78" transform="translate(-2 -2)">
    <path id="Path_353" data-name="Path 353" d="M112,17.714A102.143,102.143,0,1,0,214.143,119.857,101.939,101.939,0,0,0,112,17.714Zm0,189.357c-47.929,0-87.214-39.286-87.214-87.214S64.071,32.643,112,32.643s87.214,39.286,87.214,87.214S159.929,207.071,112,207.071ZM15.357,46.786,46.786,15.357a7.6,7.6,0,0,0,0-11,7.6,7.6,0,0,0-11,0L4.357,35.786a7.6,7.6,0,0,0,0,11,7.133,7.133,0,0,0,5.5,2.357,7.133,7.133,0,0,0,5.5-2.357Zm204.286-11L188.214,4.357a7.6,7.6,0,0,0-11,0,7.6,7.6,0,0,0,0,11l31.429,31.429a7.6,7.6,0,0,0,11,0,7.6,7.6,0,0,0,0-11Z" transform="translate(0 0)"/>
    <path id="Path_354" data-name="Path 354" d="M139.786,86.571H139c-3.929-.786-7.071-3.929-7.071-7.857s3.143-7.071,7.071-7.857h9.429A71.776,71.776,0,0,0,85.571,8v9.429c-.786,3.929-3.929,7.071-7.857,7.071s-7.071-3.143-7.857-7.071V8A71.776,71.776,0,0,0,7,70.857h9.429c3.929.786,7.071,3.929,7.071,7.857s-3.143,7.071-7.071,7.857H7a71.776,71.776,0,0,0,62.857,62.857V140c.786-3.929,3.929-7.071,7.857-7.071s7.071,3.143,7.857,7.071v9.429a71.776,71.776,0,0,0,62.857-62.857Zm-33-10.214a7.6,7.6,0,0,1-11,0L85.571,66.143v44c0,3.929-3.929,7.857-7.857,7.857s-7.857-3.929-7.857-7.857v-44L59.643,76.357a7.778,7.778,0,0,1-11-11L72.214,41.786C73,41,73.786,40.214,74.571,40.214a8.607,8.607,0,0,1,6.286,0c.786.786,1.571.786,2.357,1.571l23.571,23.571a7.6,7.6,0,0,1,0,11Z" transform="translate(34.286 41.143)"/>
  </g>
</svg>
